<?xml version="1.0" encoding="UTF-8"?>
<svg id="Layer_1" xmlns="http://www.w3.org/2000/svg" version="1.1" viewBox="0 0 1008 1008">
  <!-- Generator: Adobe Illustrator 29.7.1, SVG Export Plug-In . SVG Version: 2.1.1 Build 8)  -->
  <defs>
    <style>
      .st0 {
        fill: #19d3c5;
        stroke: #fff;
        stroke-miterlimit: 10;
        stroke-width: 2px;
      }
    </style>
  </defs>
  <path class="st0" d="M735.41,277c22.89,23,42.47,48.7,57.58,77.65,2.56,4.9,8.39,15.48,9.77,20.2.24.84.33,1.68.15,2.53l-191.5,84.48c-.92,1.28,3.92,14.22,4.56,16.98,20.05,85.13-57.05,159.69-141.53,137.59-46.81-12.25-83.09-57.04-84-105.64-34.3-18.12-20.18-68.38,18.26-67.54,29.47-45.96,88.72-63.8,139.53-43.77l85.63-192.36c35.14,15.17,67.64,36.72,95.38,63.04,2.28,2.17,4.13,4.8,6.16,6.85h0ZM535.65,427.9c-35.99-14.26-77.84-1.85-99.79,29.89,1.58,3.92,3.99,7.4,5.13,11.54,4.84,17.5-3.63,34.95-19.7,42.66,3.66,53.49,55.73,89.2,107.44,74.16,46.58-13.56,71.72-65.61,54.23-110.95l-47.21,20.6c2.86,14.21-1.05,29.26-13.74,37.12-27.52,17.04-60.53-11.99-46.18-41.45,7.39-15.19,23.29-19.85,39.23-17.16l20.61-46.4h0Z"/>
  <path class="st0" d="M793.22,772.18c-134.3,145.36-357.58,168.13-518.47,51.84-166.41-120.27-212.72-349.75-103.71-525.39,119.58-192.64,379.45-244.69,564.03-110.78,189.55,137.53,217.66,411.67,58.15,584.32h0ZM757.69,246.87C560.4,55.39,228.94,144.49,155.82,408.79c-73.74,266.57,166.74,513.9,435.18,448.59,273.52-66.55,369.73-413.4,166.67-610.51h0Z"/>
  <path class="st0" d="M604.2,245.02l-12.3,27.45c-11.86-3.3-23.49-7.39-35.6-9.92-8.36-1.75-17.28-3.35-25.78-4.19-3.74-.37-16.72-1.83-18.91,0-1.09.91-2.99,5.06-4.36,6.68-11.93,14.17-33.89,16.54-48.82,5.49-2.07-1.54-6.41-7.28-8.28-7.38-40.34,9.25-77.58,28.23-108.89,55.14-.76,1.52,1.87,9.12,2.02,12.19,1.24,24.45-20.91,43.02-44.61,36.98-1.59.19-12.65,19.66-14.17,22.58-27.71,52.44-35.34,114.7-21.92,172.55,19.68,84.89,85.93,156.9,170.05,180.62,17.2-26.67,58.05-19.85,65.24,11.04,93.2,3.07,182.14-49.1,225.84-130.79,33.86-63.31,38.29-138.34,13.78-205.8,4.39-.28,25.8-12.78,28.31-10.99,7.56,21.74,14.21,45.13,16.63,68.14,17.92,170.47-119.19,318.36-290.51,309.45-3.91,2.28-6.47,6.17-10.43,8.56-16.11,9.68-37.19,4.91-47.74-10.32-1.17-1.69-3.51-7.16-4.3-7.73-2.3-1.64-17.62-5.41-21.94-7.03-163.42-61.2-231.44-253.24-142.95-404.76,1.66-2.83,9.54-13.62,9.98-15.3.33-1.25-1.99-6.92-2.24-9.3-2.35-22.96,14.52-43.29,38.23-41.38,2.07.16,5.48,1.79,6.94,1.44,1.09-.26,14.53-12.41,17.18-14.39,32.77-24.62,70.67-42.76,110.97-51.06,5.82-25.74,38.36-35.47,58.06-17.97,4.15,3.68,5.9,7.86,9.64,11.65,31.04,1.33,62.03,6.84,90.87,18.35h.02v-.03h0Z"/>
  <path class="st0" d="M802.78,374.85c-1.4-4.73-7.21-15.3-9.77-20.2-5.33-10.21-11.22-20.01-17.61-29.43-.02-.02-.03-.03-.04-.05-1.28-1.88-2.57-3.75-3.88-5.59-2.63-3.7-5.32-7.34-8.11-10.92-2.11-2.71-4.26-5.39-6.45-8.03-.38-.46-.76-.92-1.15-1.38-3.24-3.87-6.56-7.66-9.98-11.39-1.33-1.44-2.68-2.89-4.02-4.32-.03-.04-.07-.08-.11-.12-2.06-2.17-4.14-4.3-6.25-6.42-.29-.3-.58-.6-.86-.91-.39-.41-.76-.85-1.14-1.29-2.07-2.43-2.24-2.63-3.33-3.81-.27-.28-.55-.56-.84-.83-27.75-26.31-60.24-47.86-95.38-63.04l-57.28,128.68-4.04,9.08-24.32,54.6-12.64,28.39s.05.02.07.03h0l-20.61,46.4c-.07,0-.14-.02-.21-.03l-12.49,16.23,26.28,10.13,6.64-3.79.55-.24.07-.03c-.04-.26-.1-.52-.14-.78l47.21-20.6c.04.1.08.2.11.3l28.19-12.59.08-.03c-.06-.49-.03-.85.09-1.01l175.39-77.38,16.12-7.11c.17-.86.1-1.69-.14-2.53h0Z"/>
  <circle class="st0" cx="504.02" cy="504.06" r="34.77"/>
</svg>